<mxfile host="65bd71144e">
    <diagram name="Page-1" id="3QoEQypKAUaIMpqteW-G">
        <mxGraphModel dx="990" dy="587" grid="1" gridSize="10" guides="1" tooltips="1" connect="1" arrows="1" fold="1" page="1" pageScale="1" pageWidth="827" pageHeight="1169" math="0" shadow="0">
            <root>
                <mxCell id="0"/>
                <mxCell id="1" parent="0"/>
                <mxCell id="DdTMalzcwg2Jc4V08QrX-3" value="" style="edgeStyle=orthogonalEdgeStyle;rounded=0;orthogonalLoop=1;jettySize=auto;html=1;endArrow=none;endFill=0;" parent="1" source="DdTMalzcwg2Jc4V08QrX-1" target="DdTMalzcwg2Jc4V08QrX-2" edge="1">
                    <mxGeometry relative="1" as="geometry">
                        <Array as="points">
                            <mxPoint x="460" y="410"/>
                        </Array>
                    </mxGeometry>
                </mxCell>
                <mxCell id="DdTMalzcwg2Jc4V08QrX-6" value="" style="edgeStyle=orthogonalEdgeStyle;rounded=0;orthogonalLoop=1;jettySize=auto;html=1;exitX=0.5;exitY=0;exitDx=0;exitDy=0;endArrow=none;endFill=0;" parent="1" source="DdTMalzcwg2Jc4V08QrX-1" target="DdTMalzcwg2Jc4V08QrX-5" edge="1">
                    <mxGeometry relative="1" as="geometry">
                        <Array as="points">
                            <mxPoint x="460" y="410"/>
                        </Array>
                    </mxGeometry>
                </mxCell>
                <mxCell id="DdTMalzcwg2Jc4V08QrX-13" style="edgeStyle=orthogonalEdgeStyle;rounded=0;orthogonalLoop=1;jettySize=auto;html=1;entryX=0.5;entryY=1;entryDx=0;entryDy=0;endArrow=none;endFill=0;" parent="1" source="DdTMalzcwg2Jc4V08QrX-1" target="DdTMalzcwg2Jc4V08QrX-11" edge="1">
                    <mxGeometry relative="1" as="geometry">
                        <Array as="points">
                            <mxPoint x="460" y="350"/>
                            <mxPoint x="590" y="350"/>
                        </Array>
                    </mxGeometry>
                </mxCell>
                <mxCell id="DdTMalzcwg2Jc4V08QrX-20" style="edgeStyle=orthogonalEdgeStyle;rounded=0;orthogonalLoop=1;jettySize=auto;html=1;entryX=0.5;entryY=0;entryDx=0;entryDy=0;endArrow=none;endFill=0;" parent="1" source="DdTMalzcwg2Jc4V08QrX-1" target="DdTMalzcwg2Jc4V08QrX-18" edge="1">
                    <mxGeometry relative="1" as="geometry"/>
                </mxCell>
                <mxCell id="DdTMalzcwg2Jc4V08QrX-39" style="edgeStyle=orthogonalEdgeStyle;rounded=0;orthogonalLoop=1;jettySize=auto;html=1;exitX=0.5;exitY=0;exitDx=0;exitDy=0;strokeColor=default;startArrow=none;startFill=0;endArrow=none;endFill=0;entryX=0.5;entryY=1;entryDx=0;entryDy=0;" parent="1" source="DdTMalzcwg2Jc4V08QrX-1" target="DdTMalzcwg2Jc4V08QrX-36" edge="1">
                    <mxGeometry relative="1" as="geometry">
                        <mxPoint x="420" y="330" as="targetPoint"/>
                        <Array as="points">
                            <mxPoint x="460" y="350"/>
                            <mxPoint x="320" y="350"/>
                        </Array>
                    </mxGeometry>
                </mxCell>
                <mxCell id="DdTMalzcwg2Jc4V08QrX-1" value="Series" style="rounded=0;whiteSpace=wrap;html=1;" parent="1" vertex="1">
                    <mxGeometry x="400" y="470" width="120" height="60" as="geometry"/>
                </mxCell>
                <mxCell id="DdTMalzcwg2Jc4V08QrX-2" value="name" style="ellipse;whiteSpace=wrap;html=1;rounded=0;fontStyle=4" parent="1" vertex="1">
                    <mxGeometry x="360" y="380" width="80" height="60" as="geometry"/>
                </mxCell>
                <mxCell id="DdTMalzcwg2Jc4V08QrX-5" value="date" style="ellipse;whiteSpace=wrap;html=1;rounded=0;fontStyle=4" parent="1" vertex="1">
                    <mxGeometry x="480" y="380" width="80" height="60" as="geometry"/>
                </mxCell>
                <mxCell id="DdTMalzcwg2Jc4V08QrX-10" value="language" style="ellipse;whiteSpace=wrap;html=1;" parent="1" vertex="1">
                    <mxGeometry x="460" y="270" width="80" height="50" as="geometry"/>
                </mxCell>
                <mxCell id="DdTMalzcwg2Jc4V08QrX-11" value="edition" style="ellipse;whiteSpace=wrap;html=1;" parent="1" vertex="1">
                    <mxGeometry x="550" y="270" width="80" height="50" as="geometry"/>
                </mxCell>
                <mxCell id="DdTMalzcwg2Jc4V08QrX-12" value="rating" style="ellipse;whiteSpace=wrap;html=1;" parent="1" vertex="1">
                    <mxGeometry x="370" y="270" width="80" height="50" as="geometry"/>
                </mxCell>
                <mxCell id="DdTMalzcwg2Jc4V08QrX-19" style="edgeStyle=orthogonalEdgeStyle;rounded=0;orthogonalLoop=1;jettySize=auto;html=1;entryX=0.5;entryY=1;entryDx=0;entryDy=0;endArrow=none;endFill=0;" parent="1" source="DdTMalzcwg2Jc4V08QrX-16" target="DdTMalzcwg2Jc4V08QrX-18" edge="1">
                    <mxGeometry relative="1" as="geometry"/>
                </mxCell>
                <mxCell id="DdTMalzcwg2Jc4V08QrX-29" style="edgeStyle=orthogonalEdgeStyle;rounded=0;orthogonalLoop=1;jettySize=auto;html=1;entryX=0;entryY=0.5;entryDx=0;entryDy=0;endArrow=none;endFill=0;" parent="1" source="DdTMalzcwg2Jc4V08QrX-16" target="DdTMalzcwg2Jc4V08QrX-17" edge="1">
                    <mxGeometry relative="1" as="geometry"/>
                </mxCell>
                <mxCell id="DdTMalzcwg2Jc4V08QrX-16" value="Authors" style="whiteSpace=wrap;html=1;" parent="1" vertex="1">
                    <mxGeometry x="400" y="672" width="120" height="60" as="geometry"/>
                </mxCell>
                <mxCell id="DdTMalzcwg2Jc4V08QrX-17" value="&lt;u&gt;name&lt;/u&gt;" style="ellipse;whiteSpace=wrap;html=1;" parent="1" vertex="1">
                    <mxGeometry x="550" y="672" width="80" height="60" as="geometry"/>
                </mxCell>
                <mxCell id="DdTMalzcwg2Jc4V08QrX-18" value="Authorship" style="rhombus;whiteSpace=wrap;html=1;perimeterSpacing=0;rounded=0;shadow=0;backgroundOutline=0;" parent="1" vertex="1">
                    <mxGeometry x="405" y="562" width="110" height="80" as="geometry"/>
                </mxCell>
                <mxCell id="DdTMalzcwg2Jc4V08QrX-23" value="" style="edgeStyle=orthogonalEdgeStyle;rounded=0;orthogonalLoop=1;jettySize=auto;html=1;endArrow=none;endFill=0;" parent="1" source="DdTMalzcwg2Jc4V08QrX-21" target="DdTMalzcwg2Jc4V08QrX-22" edge="1">
                    <mxGeometry relative="1" as="geometry"/>
                </mxCell>
                <mxCell id="DdTMalzcwg2Jc4V08QrX-30" style="edgeStyle=orthogonalEdgeStyle;rounded=0;orthogonalLoop=1;jettySize=auto;html=1;exitX=0.5;exitY=1;exitDx=0;exitDy=0;entryX=0.5;entryY=0;entryDx=0;entryDy=0;strokeColor=default;endArrow=none;endFill=0;" parent="1" source="DdTMalzcwg2Jc4V08QrX-21" target="DdTMalzcwg2Jc4V08QrX-24" edge="1">
                    <mxGeometry relative="1" as="geometry"/>
                </mxCell>
                <mxCell id="DdTMalzcwg2Jc4V08QrX-34" style="edgeStyle=orthogonalEdgeStyle;rounded=0;orthogonalLoop=1;jettySize=auto;html=1;entryX=0.5;entryY=0;entryDx=0;entryDy=0;strokeColor=default;startArrow=none;startFill=0;endArrow=none;endFill=0;" parent="1" target="DdTMalzcwg2Jc4V08QrX-32" edge="1">
                    <mxGeometry relative="1" as="geometry">
                        <mxPoint x="660" y="550" as="sourcePoint"/>
                        <Array as="points">
                            <mxPoint x="720" y="550"/>
                        </Array>
                    </mxGeometry>
                </mxCell>
                <mxCell id="DdTMalzcwg2Jc4V08QrX-21" value="Volumes" style="whiteSpace=wrap;html=1;" parent="1" vertex="1">
                    <mxGeometry x="600" y="470" width="120" height="60" as="geometry"/>
                </mxCell>
                <mxCell id="DdTMalzcwg2Jc4V08QrX-22" value="&lt;span&gt;entry&lt;/span&gt;" style="ellipse;whiteSpace=wrap;html=1;fontStyle=4" parent="1" vertex="1">
                    <mxGeometry x="620" y="380" width="80" height="60" as="geometry"/>
                </mxCell>
                <mxCell id="DdTMalzcwg2Jc4V08QrX-24" value="isbn" style="ellipse;whiteSpace=wrap;html=1;" parent="1" vertex="1">
                    <mxGeometry x="560" y="562" width="80" height="45" as="geometry"/>
                </mxCell>
                <mxCell id="DdTMalzcwg2Jc4V08QrX-28" style="edgeStyle=orthogonalEdgeStyle;rounded=0;orthogonalLoop=1;jettySize=auto;html=1;entryX=1;entryY=0.5;entryDx=0;entryDy=0;endArrow=classic;endFill=1;exitX=0;exitY=0.5;exitDx=0;exitDy=0;" parent="1" source="DdTMalzcwg2Jc4V08QrX-21" target="DdTMalzcwg2Jc4V08QrX-1" edge="1">
                    <mxGeometry relative="1" as="geometry">
                        <mxPoint x="580" y="500" as="sourcePoint"/>
                    </mxGeometry>
                </mxCell>
                <mxCell id="DdTMalzcwg2Jc4V08QrX-31" value="Authorship" style="rhombus;whiteSpace=wrap;html=1;perimeterSpacing=0;rounded=0;shadow=0;backgroundOutline=0;" parent="1" vertex="1">
                    <mxGeometry x="410" y="567" width="100" height="70" as="geometry"/>
                </mxCell>
                <mxCell id="DdTMalzcwg2Jc4V08QrX-32" value="read status" style="ellipse;whiteSpace=wrap;html=1;rounded=0;shadow=0;sketch=0;" parent="1" vertex="1">
                    <mxGeometry x="680" y="562" width="80" height="45" as="geometry"/>
                </mxCell>
                <mxCell id="DdTMalzcwg2Jc4V08QrX-36" value="demographic" style="ellipse;whiteSpace=wrap;html=1;rounded=0;shadow=0;sketch=0;" parent="1" vertex="1">
                    <mxGeometry x="280" y="270" width="80" height="50" as="geometry"/>
                </mxCell>
                <mxCell id="DdTMalzcwg2Jc4V08QrX-40" style="edgeStyle=orthogonalEdgeStyle;rounded=0;orthogonalLoop=1;jettySize=auto;html=1;exitX=0.5;exitY=0;exitDx=0;exitDy=0;strokeColor=default;startArrow=none;startFill=0;endArrow=none;endFill=0;entryX=0.5;entryY=1;entryDx=0;entryDy=0;" parent="1" source="DdTMalzcwg2Jc4V08QrX-1" target="DdTMalzcwg2Jc4V08QrX-12" edge="1">
                    <mxGeometry relative="1" as="geometry">
                        <mxPoint x="330" y="330" as="targetPoint"/>
                        <mxPoint x="470" y="480" as="sourcePoint"/>
                        <Array as="points">
                            <mxPoint x="460" y="350"/>
                            <mxPoint x="410" y="350"/>
                        </Array>
                    </mxGeometry>
                </mxCell>
                <mxCell id="DdTMalzcwg2Jc4V08QrX-41" style="edgeStyle=orthogonalEdgeStyle;rounded=0;orthogonalLoop=1;jettySize=auto;html=1;exitX=0.5;exitY=0;exitDx=0;exitDy=0;strokeColor=default;startArrow=none;startFill=0;endArrow=none;endFill=0;entryX=0.5;entryY=1;entryDx=0;entryDy=0;" parent="1" source="DdTMalzcwg2Jc4V08QrX-1" edge="1">
                    <mxGeometry relative="1" as="geometry">
                        <mxPoint x="500" y="320" as="targetPoint"/>
                        <mxPoint x="550" y="470" as="sourcePoint"/>
                        <Array as="points">
                            <mxPoint x="460" y="350"/>
                            <mxPoint x="500" y="350"/>
                        </Array>
                    </mxGeometry>
                </mxCell>
                <mxCell id="DdTMalzcwg2Jc4V08QrX-48" style="edgeStyle=orthogonalEdgeStyle;rounded=0;orthogonalLoop=1;jettySize=auto;html=1;entryX=0.5;entryY=1;entryDx=0;entryDy=0;strokeColor=default;startArrow=none;startFill=0;endArrow=none;endFill=0;" parent="1" source="DdTMalzcwg2Jc4V08QrX-42" target="DdTMalzcwg2Jc4V08QrX-44" edge="1">
                    <mxGeometry relative="1" as="geometry"/>
                </mxCell>
                <mxCell id="DdTMalzcwg2Jc4V08QrX-42" value="Genres" style="rounded=0;whiteSpace=wrap;html=1;shadow=0;sketch=0;" parent="1" vertex="1">
                    <mxGeometry x="105" y="300" width="120" height="60" as="geometry"/>
                </mxCell>
                <mxCell id="DdTMalzcwg2Jc4V08QrX-44" value="genre" style="ellipse;whiteSpace=wrap;html=1;rounded=0;shadow=0;sketch=0;fontStyle=4" parent="1" vertex="1">
                    <mxGeometry x="125" y="220" width="80" height="50" as="geometry"/>
                </mxCell>
                <mxCell id="DdTMalzcwg2Jc4V08QrX-46" style="edgeStyle=orthogonalEdgeStyle;rounded=0;orthogonalLoop=1;jettySize=auto;html=1;strokeColor=default;startArrow=none;startFill=0;endArrow=none;endFill=0;exitX=1;exitY=0.5;exitDx=0;exitDy=0;" parent="1" source="2" edge="1">
                    <mxGeometry relative="1" as="geometry">
                        <mxPoint x="390" y="520" as="sourcePoint"/>
                        <mxPoint x="400" y="500" as="targetPoint"/>
                        <Array as="points">
                            <mxPoint x="350" y="500"/>
                            <mxPoint x="350" y="500"/>
                        </Array>
                    </mxGeometry>
                </mxCell>
                <mxCell id="7" style="edgeStyle=none;html=1;exitX=1;exitY=0.5;exitDx=0;exitDy=0;endArrow=none;endFill=0;rounded=0;" edge="1" parent="1" source="DdTMalzcwg2Jc4V08QrX-45">
                    <mxGeometry relative="1" as="geometry">
                        <mxPoint x="350" y="560" as="targetPoint"/>
                        <Array as="points">
                            <mxPoint x="350" y="430"/>
                        </Array>
                    </mxGeometry>
                </mxCell>
                <mxCell id="17" style="edgeStyle=none;rounded=0;html=1;exitX=0.5;exitY=0;exitDx=0;exitDy=0;endArrow=none;endFill=0;entryX=1;entryY=0.5;entryDx=0;entryDy=0;" edge="1" parent="1" source="DdTMalzcwg2Jc4V08QrX-45" target="DdTMalzcwg2Jc4V08QrX-42">
                    <mxGeometry relative="1" as="geometry">
                        <mxPoint x="265" y="330" as="targetPoint"/>
                        <Array as="points">
                            <mxPoint x="265" y="330"/>
                        </Array>
                    </mxGeometry>
                </mxCell>
                <mxCell id="DdTMalzcwg2Jc4V08QrX-45" value="genre of" style="rhombus;whiteSpace=wrap;html=1;rounded=0;shadow=0;sketch=0;" parent="1" vertex="1">
                    <mxGeometry x="220" y="400" width="90" height="60" as="geometry"/>
                </mxCell>
                <mxCell id="DdTMalzcwg2Jc4V08QrX-47" value="genre of" style="rhombus;whiteSpace=wrap;html=1;rounded=0;shadow=0;sketch=0;" parent="1" vertex="1">
                    <mxGeometry x="223.75" y="402.5" width="82.5" height="55" as="geometry"/>
                </mxCell>
                <mxCell id="2" value="genre of" style="rhombus;whiteSpace=wrap;html=1;rounded=0;shadow=0;sketch=0;" vertex="1" parent="1">
                    <mxGeometry x="180" y="470" width="90" height="60" as="geometry"/>
                </mxCell>
                <mxCell id="3" value="language of" style="rhombus;whiteSpace=wrap;html=1;rounded=0;shadow=0;sketch=0;" vertex="1" parent="1">
                    <mxGeometry x="183.75" y="472.5" width="82.5" height="55" as="geometry"/>
                </mxCell>
                <mxCell id="14" style="edgeStyle=none;rounded=0;html=1;exitX=0.5;exitY=1;exitDx=0;exitDy=0;entryX=0.5;entryY=0;entryDx=0;entryDy=0;endArrow=none;endFill=0;startArrow=none;" edge="1" parent="1" source="5" target="10">
                    <mxGeometry relative="1" as="geometry"/>
                </mxCell>
                <mxCell id="25" style="edgeStyle=none;rounded=0;html=1;exitX=0.5;exitY=0;exitDx=0;exitDy=0;endArrow=none;endFill=0;" edge="1" parent="1" source="4">
                    <mxGeometry relative="1" as="geometry">
                        <mxPoint x="265.0689655172414" y="560" as="targetPoint"/>
                    </mxGeometry>
                </mxCell>
                <mxCell id="4" value="" style="rhombus;whiteSpace=wrap;html=1;rounded=0;shadow=0;sketch=0;" vertex="1" parent="1">
                    <mxGeometry x="220" y="597.5" width="90" height="60" as="geometry"/>
                </mxCell>
                <mxCell id="12" style="edgeStyle=none;rounded=0;html=1;exitX=1;exitY=0.5;exitDx=0;exitDy=0;entryX=0;entryY=0.5;entryDx=0;entryDy=0;endArrow=none;endFill=0;" edge="1" parent="1" source="9" target="2">
                    <mxGeometry relative="1" as="geometry"/>
                </mxCell>
                <mxCell id="18" style="edgeStyle=none;rounded=0;html=1;exitX=0.5;exitY=0;exitDx=0;exitDy=0;entryX=0.5;entryY=1;entryDx=0;entryDy=0;endArrow=none;endFill=0;" edge="1" parent="1" source="9" target="15">
                    <mxGeometry relative="1" as="geometry"/>
                </mxCell>
                <mxCell id="9" value="Languages" style="rounded=0;whiteSpace=wrap;html=1;shadow=0;sketch=0;" vertex="1" parent="1">
                    <mxGeometry x="20" y="470" width="120" height="60" as="geometry"/>
                </mxCell>
                <mxCell id="10" value="Publishers" style="whiteSpace=wrap;html=1;" vertex="1" parent="1">
                    <mxGeometry x="205" y="672" width="120" height="60" as="geometry"/>
                </mxCell>
                <mxCell id="15" value="language" style="ellipse;whiteSpace=wrap;html=1;rounded=0;shadow=0;sketch=0;fontStyle=4" vertex="1" parent="1">
                    <mxGeometry x="40" y="390" width="80" height="50" as="geometry"/>
                </mxCell>
                <mxCell id="19" value="" style="edgeStyle=none;rounded=0;html=1;exitX=0.5;exitY=1;exitDx=0;exitDy=0;entryX=0.5;entryY=0;entryDx=0;entryDy=0;endArrow=none;endFill=0;" edge="1" parent="1" source="4" target="5">
                    <mxGeometry relative="1" as="geometry">
                        <mxPoint x="265" y="622" as="sourcePoint"/>
                        <mxPoint x="265" y="672" as="targetPoint"/>
                    </mxGeometry>
                </mxCell>
                <mxCell id="5" value="publisher of" style="rhombus;whiteSpace=wrap;html=1;rounded=0;shadow=0;sketch=0;" vertex="1" parent="1">
                    <mxGeometry x="223.75" y="600" width="82.5" height="55" as="geometry"/>
                </mxCell>
                <mxCell id="20" style="edgeStyle=none;rounded=0;html=1;entryX=0.5;entryY=0;entryDx=0;entryDy=0;endArrow=none;endFill=0;startArrow=none;exitX=0.5;exitY=1;exitDx=0;exitDy=0;" edge="1" parent="1" source="21" target="22">
                    <mxGeometry relative="1" as="geometry">
                        <mxPoint x="140" y="660" as="sourcePoint"/>
                    </mxGeometry>
                </mxCell>
                <mxCell id="21" value="" style="rhombus;whiteSpace=wrap;html=1;rounded=0;shadow=0;sketch=0;" vertex="1" parent="1">
                    <mxGeometry x="62.81" y="597.5" width="113.12" height="60" as="geometry"/>
                </mxCell>
                <mxCell id="22" value="Publishers" style="whiteSpace=wrap;html=1;" vertex="1" parent="1">
                    <mxGeometry x="59.37" y="672" width="120" height="60" as="geometry"/>
                </mxCell>
                <mxCell id="26" style="edgeStyle=none;rounded=0;html=1;endArrow=none;endFill=0;exitX=0.5;exitY=0;exitDx=0;exitDy=0;" edge="1" parent="1" source="21">
                    <mxGeometry relative="1" as="geometry">
                        <mxPoint x="350" y="560" as="targetPoint"/>
                        <mxPoint x="140" y="590" as="sourcePoint"/>
                        <Array as="points">
                            <mxPoint x="119" y="560"/>
                        </Array>
                    </mxGeometry>
                </mxCell>
                <mxCell id="24" value="demographic of" style="rhombus;whiteSpace=wrap;html=1;rounded=0;shadow=0;sketch=0;" vertex="1" parent="1">
                    <mxGeometry x="68.75" y="600" width="101.25" height="55" as="geometry"/>
                </mxCell>
                <mxCell id="31" style="edgeStyle=none;rounded=0;html=1;exitX=0.5;exitY=0;exitDx=0;exitDy=0;entryX=0.5;entryY=1;entryDx=0;entryDy=0;endArrow=none;endFill=0;" edge="1" parent="1" source="27" target="10">
                    <mxGeometry relative="1" as="geometry"/>
                </mxCell>
                <mxCell id="27" value="publisher" style="ellipse;whiteSpace=wrap;html=1;rounded=0;shadow=0;sketch=0;fontStyle=4" vertex="1" parent="1">
                    <mxGeometry x="225" y="760" width="80" height="50" as="geometry"/>
                </mxCell>
                <mxCell id="33" style="edgeStyle=none;rounded=0;html=1;exitX=0.5;exitY=0;exitDx=0;exitDy=0;entryX=0.92;entryY=0.999;entryDx=0;entryDy=0;entryPerimeter=0;endArrow=none;endFill=0;" edge="1" parent="1" source="28" target="22">
                    <mxGeometry relative="1" as="geometry"/>
                </mxCell>
                <mxCell id="28" value="demo" style="ellipse;whiteSpace=wrap;html=1;rounded=0;shadow=0;sketch=0;fontStyle=4" vertex="1" parent="1">
                    <mxGeometry x="130" y="760" width="80" height="50" as="geometry"/>
                </mxCell>
                <mxCell id="32" style="edgeStyle=none;rounded=0;html=1;exitX=0.5;exitY=0;exitDx=0;exitDy=0;entryX=0.091;entryY=0.998;entryDx=0;entryDy=0;entryPerimeter=0;endArrow=none;endFill=0;" edge="1" parent="1" source="30" target="22">
                    <mxGeometry relative="1" as="geometry"/>
                </mxCell>
                <mxCell id="30" value="description" style="ellipse;whiteSpace=wrap;html=1;" vertex="1" parent="1">
                    <mxGeometry x="30.000000000000007" y="760" width="80" height="50" as="geometry"/>
                </mxCell>
            </root>
        </mxGraphModel>
    </diagram>
</mxfile>